<svg version="1.1" id="Layer_1" xmlns="http://www.w3.org/2000/svg" xmlns:xlink="http://www.w3.org/1999/xlink" x="0px" y="0px"
	 width="100%" viewBox="0 0 512 512" enable-background="new 0 0 512 512" xml:space="preserve">
<path fill="#000000" opacity="1.000000" stroke="none" 
	d="
M298.000000,513.000000 
	C198.690781,513.000000 99.881554,513.000000 1.036167,513.000000 
	C1.036167,342.399078 1.036167,171.798172 1.036167,1.098622 
	C171.559235,1.098622 342.118561,1.098622 512.838928,1.098622 
	C512.838928,171.666550 512.838928,342.333252 512.838928,513.000000 
	C441.464813,513.000000 369.982391,513.000000 298.000000,513.000000 
M369.500000,504.999359 
	C392.332947,504.999451 415.167023,505.137909 437.998352,504.944153 
	C450.308685,504.839691 461.982910,501.640778 472.296570,494.871368 
	C493.898468,480.692871 505.027802,460.673035 505.016907,434.599274 
	C504.974457,332.934814 505.082855,231.270142 504.833374,129.606293 
	C504.814484,121.903694 503.397736,113.887550 500.977386,106.563553 
	C491.316803,77.330460 465.661865,60.249458 436.998108,60.159279 
	C317.001892,59.781750 197.003738,59.954460 77.006592,60.129173 
	C70.735245,60.138302 64.291763,61.407890 58.226353,63.136215 
	C28.404106,71.633987 8.847305,99.232376 8.916130,130.598434 
	C9.141034,233.095734 8.957053,335.593842 9.057022,438.091553 
	C9.069023,450.396851 12.391776,462.063049 19.171814,472.366577 
	C33.381916,493.961517 53.418392,505.039185 79.506271,505.023041 
	C175.837494,504.963409 272.168762,504.999359 369.500000,504.999359 
z"/>
<path fill="#3B97D3" opacity="1.000000" stroke="none" 
	d="
M369.000000,504.999359 
	C272.168762,504.999359 175.837494,504.963409 79.506271,505.023041 
	C53.418392,505.039185 33.381916,493.961517 19.171814,472.366577 
	C12.391776,462.063049 9.069023,450.396851 9.057022,438.091553 
	C8.957053,335.593842 9.141034,233.095734 8.916130,130.598434 
	C8.847305,99.232376 28.404106,71.633987 58.226353,63.136215 
	C64.291763,61.407890 70.735245,60.138302 77.006592,60.129173 
	C197.003738,59.954460 317.001892,59.781750 436.998108,60.159279 
	C465.661865,60.249458 491.316803,77.330460 500.977386,106.563553 
	C503.397736,113.887550 504.814484,121.903694 504.833374,129.606293 
	C505.082855,231.270142 504.974457,332.934814 505.016907,434.599274 
	C505.027802,460.673035 493.898468,480.692871 472.296570,494.871368 
	C461.982910,501.640778 450.308685,504.839691 437.998352,504.944153 
	C415.167023,505.137909 392.332947,504.999451 369.000000,504.999359 
M149.895065,316.690826 
	C142.607803,332.169434 143.657684,347.520874 151.504898,362.933044 
	C148.448563,362.933044 146.297699,362.943848 144.146973,362.931458 
	C111.503159,362.743469 87.648987,393.590668 96.068405,425.107697 
	C102.058098,447.529327 121.583168,461.847015 146.539795,461.859680 
	C232.844009,461.903564 319.148285,461.884735 405.452515,461.846039 
	C408.938019,461.844482 412.443207,461.560883 415.905640,461.135284 
	C450.002716,456.943909 473.564301,425.550110 468.950958,390.529205 
	C464.626984,357.705261 432.398132,333.779602 399.163910,338.812653 
	C394.482605,339.521606 389.873505,340.707458 384.792999,341.763611 
	C385.437225,340.244110 385.844727,339.174408 386.334412,338.143707 
	C406.913361,294.828217 389.299866,244.097336 346.153076,223.215347 
	C321.808014,211.432938 297.007294,211.533997 271.949249,220.876938 
	C271.611145,219.590775 271.285858,218.301086 270.933014,217.018997 
	C258.578979,172.130920 211.498764,145.266937 166.633179,157.503204 
	C133.321045,166.588501 108.155090,195.171890 104.115425,228.510635 
	C99.668854,265.207428 116.977913,298.200287 149.895065,316.690826 
M69.590912,248.384995 
	C75.149437,247.110382 78.075783,243.932541 77.799255,239.471207 
	C77.504120,234.709641 73.875114,231.477600 68.187584,231.362579 
	C60.547569,231.208084 52.900917,231.233276 45.259472,231.344040 
	C39.003597,231.434738 35.121067,234.847641 35.125381,239.946091 
	C35.129704,245.052658 38.971466,248.358017 45.303959,248.432159 
	C53.112003,248.523605 60.922081,248.441406 69.590912,248.384995 
M262.951965,128.472046 
	C264.857056,125.151505 266.906708,121.904068 268.631744,118.492493 
	C270.948090,113.911514 269.528290,109.155266 265.413086,106.849907 
	C261.271606,104.529823 256.556671,105.759079 253.816788,110.275993 
	C249.501434,117.390198 245.336136,124.600616 241.300858,131.877625 
	C238.745010,136.486710 239.989853,141.186310 244.050537,143.675110 
	C248.277267,146.265671 253.075790,145.018631 256.053040,140.323471 
	C258.368622,136.671783 260.422699,132.854294 262.951965,128.472046 
M76.366425,165.154068 
	C73.480553,163.508530 70.646622,161.762314 67.696938,160.240463 
	C62.986130,157.809982 58.379234,158.952194 55.922676,162.998062 
	C53.374996,167.193985 54.611591,172.171127 59.268478,174.984024 
	C66.234726,179.191879 73.295517,183.251999 80.422768,187.181458 
	C85.294708,189.867523 90.128311,188.659729 92.571205,184.501251 
	C95.154716,180.103424 93.691261,175.379211 88.631828,172.289642 
	C84.804787,169.952652 80.873100,167.787018 76.366425,165.154068 
M320.691071,173.032715 
	C323.647186,169.215576 323.770416,165.292206 320.509277,161.730957 
	C317.224579,158.143951 313.257782,158.186188 309.186554,160.540710 
	C302.286499,164.531189 295.321808,168.414078 288.496979,172.529083 
	C283.710266,175.415192 282.405762,180.183304 284.892792,184.449112 
	C287.266754,188.521042 291.976715,189.968674 296.557159,187.423981 
	C304.532074,182.993469 312.305847,178.200912 320.691071,173.032715 
M120.929169,139.576828 
	C124.763550,145.060440 128.980545,146.419708 133.475647,143.620941 
	C137.788651,140.935532 138.531693,136.093002 135.355438,130.462631 
	C131.761459,124.091812 128.118271,117.747269 124.395607,111.450958 
	C121.142914,105.949532 116.490471,104.312157 111.964485,106.902382 
	C107.453140,109.484222 106.504509,114.420731 109.611511,119.932304 
	C113.203415,126.304039 116.910767,132.610687 120.929169,139.576828 
M55.232342,315.683167 
	C59.027771,321.458740 62.621506,322.440521 68.642906,319.082855 
	C75.325706,315.356354 81.962067,311.541901 88.538849,307.631500 
	C93.702492,304.561371 95.216507,299.886078 92.721085,295.465027 
	C90.244476,291.077271 85.320374,289.947418 80.176224,292.812225 
	C73.491341,296.535065 66.939018,300.496155 60.249809,304.210907 
	C55.939339,306.604706 53.917034,309.940918 55.232342,315.683167 
M197.193665,101.553459 
	C197.184784,99.396767 197.259064,97.235863 197.150406,95.084213 
	C196.891098,89.949409 193.468018,86.403214 188.819931,86.342834 
	C184.213089,86.283005 180.361542,89.780655 180.216766,94.870972 
	C179.976318,103.325005 179.991089,111.794609 180.202164,120.250069 
	C180.330582,125.393105 184.017090,128.919861 188.619156,128.980118 
	C193.466080,129.043579 197.013214,125.423828 197.145920,119.957748 
	C197.286819,114.154388 197.187881,108.345215 197.193665,101.553459 
z"/>
<path fill="#ECF0F1" opacity="1.000000" stroke="none" 
	d="
M272.112152,221.730576 
	C297.007294,211.533997 321.808014,211.432938 346.153076,223.215347 
	C389.299866,244.097336 406.913361,294.828217 386.334412,338.143707 
	C385.844727,339.174408 385.437225,340.244110 384.792999,341.763611 
	C389.873505,340.707458 394.482605,339.521606 399.163910,338.812653 
	C432.398132,333.779602 464.626984,357.705261 468.950958,390.529205 
	C473.564301,425.550110 450.002716,456.943909 415.905640,461.135284 
	C412.443207,461.560883 408.938019,461.844482 405.452515,461.846039 
	C319.148285,461.884735 232.844009,461.903564 146.539795,461.859680 
	C121.583168,461.847015 102.058098,447.529327 96.068405,425.107697 
	C87.648987,393.590668 111.503159,362.743469 144.146973,362.931458 
	C146.297699,362.943848 148.448563,362.933044 151.504898,362.933044 
	C143.657684,347.520874 142.607803,332.169434 150.183121,316.087097 
	C157.294922,303.101257 167.300323,294.545349 180.952942,290.601715 
	C194.510025,286.685760 207.546265,288.630524 219.960159,295.162048 
	C221.517059,288.226959 222.487915,281.642456 224.488785,275.387421 
	C232.434418,250.548279 248.814407,233.028641 272.112152,221.730576 
z"/>
<path fill="#F0C41A" opacity="1.000000" stroke="none" 
	d="
M272.030701,221.303757 
	C248.814407,233.028641 232.434418,250.548279 224.488785,275.387421 
	C222.487915,281.642456 221.517059,288.226959 219.960159,295.162048 
	C207.546265,288.630524 194.510025,286.685760 180.952942,290.601715 
	C167.300323,294.545349 157.294922,303.101257 150.230286,315.717285 
	C116.977913,298.200287 99.668854,265.207428 104.115425,228.510635 
	C108.155090,195.171890 133.321045,166.588501 166.633179,157.503204 
	C211.498764,145.266937 258.578979,172.130920 270.933014,217.018997 
	C271.285858,218.301086 271.611145,219.590775 272.030701,221.303757 
z"/>
<path fill="#EED35E" opacity="1.000000" stroke="none" 
	d="
M69.161095,248.409622 
	C60.922081,248.441406 53.112003,248.523605 45.303959,248.432159 
	C38.971466,248.358017 35.129704,245.052658 35.125381,239.946091 
	C35.121067,234.847641 39.003597,231.434738 45.259472,231.344040 
	C52.900917,231.233276 60.547569,231.208084 68.187584,231.362579 
	C73.875114,231.477600 77.504120,234.709641 77.799255,239.471207 
	C78.075783,243.932541 75.149437,247.110382 69.161095,248.409622 
z"/>
<path fill="#F0D45D" opacity="1.000000" stroke="none" 
	d="
M262.772461,128.791260 
	C260.422699,132.854294 258.368622,136.671783 256.053040,140.323471 
	C253.075790,145.018631 248.277267,146.265671 244.050537,143.675110 
	C239.989853,141.186310 238.745010,136.486710 241.300858,131.877625 
	C245.336136,124.600616 249.501434,117.390198 253.816788,110.275993 
	C256.556671,105.759079 261.271606,104.529823 265.413086,106.849907 
	C269.528290,109.155266 270.948090,113.911514 268.631744,118.492493 
	C266.906708,121.904068 264.857056,125.151505 262.772461,128.791260 
z"/>
<path fill="#EFD45D" opacity="1.000000" stroke="none" 
	d="
M76.677200,165.349594 
	C80.873100,167.787018 84.804787,169.952652 88.631828,172.289642 
	C93.691261,175.379211 95.154716,180.103424 92.571205,184.501251 
	C90.128311,188.659729 85.294708,189.867523 80.422768,187.181458 
	C73.295517,183.251999 66.234726,179.191879 59.268478,174.984024 
	C54.611591,172.171127 53.374996,167.193985 55.922676,162.998062 
	C58.379234,158.952194 62.986130,157.809982 67.696938,160.240463 
	C70.646622,161.762314 73.480553,163.508530 76.677200,165.349594 
z"/>
<path fill="#F0D45D" opacity="1.000000" stroke="none" 
	d="
M320.427490,173.296417 
	C312.305847,178.200912 304.532074,182.993469 296.557159,187.423981 
	C291.976715,189.968674 287.266754,188.521042 284.892792,184.449112 
	C282.405762,180.183304 283.710266,175.415192 288.496979,172.529083 
	C295.321808,168.414078 302.286499,164.531189 309.186554,160.540710 
	C313.257782,158.186188 317.224579,158.143951 320.509277,161.730957 
	C323.770416,165.292206 323.647186,169.215576 320.427490,173.296417 
z"/>
<path fill="#F0D45D" opacity="1.000000" stroke="none" 
	d="
M120.748581,139.261200 
	C116.910767,132.610687 113.203415,126.304039 109.611511,119.932304 
	C106.504509,114.420731 107.453140,109.484222 111.964485,106.902382 
	C116.490471,104.312157 121.142914,105.949532 124.395607,111.450958 
	C128.118271,117.747269 131.761459,124.091812 135.355438,130.462631 
	C138.531693,136.093002 137.788651,140.935532 133.475647,143.620941 
	C128.980545,146.419708 124.763550,145.060440 120.748581,139.261200 
z"/>
<path fill="#F0D45D" opacity="1.000000" stroke="none" 
	d="
M55.117500,315.289337 
	C53.917034,309.940918 55.939339,306.604706 60.249809,304.210907 
	C66.939018,300.496155 73.491341,296.535065 80.176224,292.812225 
	C85.320374,289.947418 90.244476,291.077271 92.721085,295.465027 
	C95.216507,299.886078 93.702492,304.561371 88.538849,307.631500 
	C81.962067,311.541901 75.325706,315.356354 68.642906,319.082855 
	C62.621506,322.440521 59.027771,321.458740 55.117500,315.289337 
z"/>
<path fill="#EFD45D" opacity="1.000000" stroke="none" 
	d="
M197.193665,102.046021 
	C197.187881,108.345215 197.286819,114.154388 197.145920,119.957748 
	C197.013214,125.423828 193.466080,129.043579 188.619156,128.980118 
	C184.017090,128.919861 180.330582,125.393105 180.202164,120.250069 
	C179.991089,111.794609 179.976318,103.325005 180.216766,94.870972 
	C180.361542,89.780655 184.213089,86.283005 188.819931,86.342834 
	C193.468018,86.403214 196.891098,89.949409 197.150406,95.084213 
	C197.259064,97.235863 197.184784,99.396767 197.193665,102.046021 
z"/>
</svg>